<svg height="1.1em" viewBox="0 0 417 364" fill="none" xmlns="http://www.w3.org/2000/svg">
<path d="M282.538 142.612C243.115 93.9906 228.191 62.5198 208.991 2C182.632 72.6255 165.733 104.7 131.321 146.528C151.202 156.014 160.97 166.511 177.399 188.719C183.946 158.752 180.077 149.432 162.838 143.94C180.3 121.381 189.007 106.036 199.588 80.2868L206.913 92.599L216.895 79.3096C224.738 106.891 234.188 120.666 252.955 142.853C234.48 152.333 230.829 161.374 239.615 185.958C251.941 166.579 261.009 156.901 282.538 142.612Z" stroke="white" stroke-width="12" />
<path d="M87 224.779C64.6044 283.232 44.8117 311.891 2 358.779C76.3428 346.293 112.57 344.891 166 353.779C164.275 331.819 168.481 318.111 179.5 292.779C150.274 302.092 144.137 310.103 148 327.779C119.733 323.935 102.09 324.068 74.5 327.779L81.5 315.279L65 313.279C84.9647 292.696 92.1691 277.624 102 250.279C119.448 261.538 129.103 260.18 146 240.279C123.055 239.294 110.139 236.28 87 224.779Z" stroke="white"  stroke-width="12" />
<path d="M256.345 353.646C318.326 344.895 352.988 348.311 414.753 363.024C367.791 304.055 349.001 273.05 330.871 222.01C312.5 234.166 298.472 237.133 270.974 239.776C293.289 260.823 303.27 262.307 316.857 250.358C327.2 276.945 335.869 292.312 352.491 314.643L338.164 314.581L344.415 329.982C316.733 322.499 300.059 323.505 271.376 328.164C272.764 307.445 266.896 299.659 241.298 294.529C251.56 315.074 255.186 327.832 256.345 353.646Z" stroke="white"  stroke-width="12"/>
</svg>
